<?xml version="1.0" encoding="utf-8" ?>
<svg xmlns="http://www.w3.org/2000/svg" xmlns:xlink="http://www.w3.org/1999/xlink" width="1024" height="1024">
	<path fill="white" transform="scale(1.6 1.6)" d="M233.168 328.743C209.665 306.369 187.216 282.898 164.247 259.989L143.997 239.708C134.033 229.704 134.12 230.914 129.633 217.513C125.47 205.08 121.96 192.408 118.085 179.878L102.895 131.299C99.9029 121.594 87.8866 97.4689 102.402 94.148C105.727 93.9914 183.281 130.218 192.321 133.981C205.236 139.357 205.873 141.637 215.884 151.642L285.922 221.448C295.021 230.469 304.43 239.281 312.97 248.838C305.682 255.989 298.713 263.421 291.532 270.672L269.447 292.555C257.45 304.676 244.699 316.195 233.168 328.743Z"/>
	<path fill="white" transform="scale(1.6 1.6)" d="M282.251 448.257C276.628 446.825 274.08 443.701 270.007 439.828L257.7 427.978C247.631 418.098 216.571 389.607 210.02 378.158C205.789 370.764 218.16 362.512 223.171 357.431L423.932 154.723C434.626 143.709 435.834 140.004 450.899 133.468C456.842 130.89 462.782 128.285 468.654 125.55L525.632 98.805C528.557 97.3727 531.464 95.7312 534.563 94.7213C551.667 93.3216 542.729 111.892 540.035 120.423L519.334 186.669C517.577 192.414 507.798 226.093 505.497 229.106C502.677 232.798 499.061 235.815 495.816 239.115L406.142 328.874C402.17 332.926 398.019 336.888 394.364 341.231C401.345 347.905 423.989 368.003 425.903 376.011C423.069 383.204 398.606 404.883 392.377 411.049L369.97 433.299C367.109 436.153 356.647 448.571 352.573 448.531C346.438 448.469 323.927 423.445 318.153 417.728C311.263 424.186 289.919 449.141 282.251 448.257Z"/>
	<path fill="white" transform="scale(1.6 1.6)" d="M161.384 407.56C119.315 402.78 126.691 354.316 160.5 350.429C180.084 348.597 191.712 364.886 191.482 383.238C218.492 407.159 243.415 433.45 269.167 458.698C276.54 465.926 286.524 470.459 291.434 480.004C303.035 502.559 280.837 530.114 256.022 521.464C238.16 515.237 233.253 500.621 239.38 483.633C232.721 475.905 222.81 467.015 215.207 460.038C202.906 472.132 190.01 483.629 177.979 495.999C179.208 501.267 186.652 503.477 181.762 509.597C178.658 513.482 174.395 516.77 170.788 520.195C159.924 530.511 153.234 541.882 136.124 542.489C115.071 543.235 96.9318 525.805 96.5152 504.76C96.1465 486.135 110.237 475.915 122.24 464.233C137.523 449.359 135.898 450.222 151.742 467.203C159.905 456.961 175.984 442.077 185.532 432.44C179.986 426.05 167.968 412.74 161.384 407.56Z"/>
	<path fill="white" transform="scale(1.6 1.6)" d="M444.426 379.417C444.322 363.96 456.68 352.596 471.465 350.413C481.054 348.903 492.524 354.394 498.273 361.823C513.061 380.934 498.082 410.221 473.797 406.908C466.281 415.173 458.329 423.069 450.559 431.097L473.331 453.529C477.853 457.953 483.45 462.465 487.061 467.652C505.564 448.041 502.74 450.886 521.209 468.512C528.659 475.622 537.431 482.16 541.093 492.161C552.174 522.422 519.364 553.187 489.709 538.487C480.916 534.128 474.612 525.571 467.81 518.79C462.216 513.214 453.915 509.488 458.67 500.496C459.537 499.177 460.493 497.896 461.402 496.605C457.753 492.663 453.68 489.028 449.789 485.328L432.122 468.402C428.708 465.131 425.07 461.934 421.945 458.387C414.869 466.549 405.872 472.958 398.959 481.255C408.469 498.237 397.479 517.712 378.322 520.77C353.137 524.791 334.752 496.027 348.718 474.424C353.121 467.614 380.518 443.578 387.891 436.234L436.565 387.716C439.281 385.049 442.177 382.51 444.426 379.417Z"/>
</svg>
