<?xml version="1.0" encoding="utf-8" ?>
<svg xmlns="http://www.w3.org/2000/svg" xmlns:xlink="http://www.w3.org/1999/xlink" width="1024" height="1024">
	<path fill="white" transform="scale(1.6 1.6)" d="M231.426 201.568C259.831 104.442 332.425 59.433 428.915 57.0158C437.263 56.9382 467.411 53.3161 458.23 71.5203C453.199 81.4944 419.132 78.5249 402.796 111.968C388.231 141.787 400.533 173.137 410.113 201.407C384.56 219.33 308.729 218.861 279.325 215.349C265.81 213.349 242.877 208.717 231.426 201.568Z"/>
	<path fill="white" transform="scale(1.6 1.6)" d="M210.925 269.182C202.681 266.543 194.111 264.74 185.743 262.505C174.22 259.427 134.596 249.528 125.163 244.027C116.352 238.889 119.95 224.611 129.235 222.09C132.308 221.256 135.835 221.189 139.013 220.873L198.373 214.758C218.134 212.697 218.846 210.449 236.823 217.264C281.491 234.198 345.752 234.319 391.955 220.84C400.189 218.438 409.547 214.329 417.525 212.559C424.806 211.761 437.999 214.419 445.902 215.216L490.371 219.811C499.964 220.83 516.828 219.241 519.745 231.291C522.558 242.912 510.271 245.731 502.1 248.179L485.209 253.166C466.335 258.687 447.452 264.481 428.367 269.234C432.998 288.835 438.548 308.483 444.179 327.833C445.998 334.085 455.868 360.545 452.929 365.963C450.171 371.046 443.66 372.836 438.694 374.873C410.907 386.273 387.07 393.866 362.986 412.342C354.003 419.233 328.229 441.02 318.318 444.104C295.486 430.637 276.734 409.732 251.975 396.719C232.063 386.774 211.253 380.644 192.308 371.276C178.676 364.535 189.464 345.592 192.923 333.649L202.144 300.771C205.181 290.25 208.506 279.875 210.925 269.182ZM236.62 276.46C236.121 312.91 247.783 345.303 273.34 371.566C282.171 380.641 300.851 397.046 312.201 401.967C330.341 409.831 361.32 376.778 371.475 365.018C391.946 341.525 403.177 308.314 402.753 277.097L402.289 277.122C396.795 277.447 391.207 278.734 385.768 279.587C337.818 287.105 284.373 286.501 236.62 276.46Z"/>
	<path fill="white" transform="scale(1.6 1.6)" d="M466.719 538.636L163.718 538.644C156.013 538.644 121.562 540.437 116.069 536.974C110.36 533.376 112.14 525.214 113.049 519.725C121.408 469.236 146.485 453.859 188.569 435.391L223.574 420.329C235.194 415.447 247.067 409.265 259.452 406.659C261.206 407.245 308.723 479.254 318.695 495.054C331.731 477.403 343.88 458.89 355.758 440.438C362.936 429.286 369.563 417.242 378.082 407.073C392.541 408.756 405.992 417.036 419.187 422.591C468.785 443.473 511.513 454.365 524.233 513.228C530.179 540.74 523.8 538.676 501.412 538.664L466.719 538.636Z"/>
</svg>
