<?xml version="1.0" encoding="utf-8" ?>
<svg xmlns="http://www.w3.org/2000/svg" xmlns:xlink="http://www.w3.org/1999/xlink" width="1024" height="1024">
	<path fill="white" transform="scale(1.6 1.6)" d="M265.441 130.393C265.183 122.438 265.335 114.466 265.328 106.506C265.304 82.2046 268.783 69.9865 296.089 69.2024C297.328 69.1663 298.567 69.1332 299.807 69.1216L330.533 69.0939C368.579 69.0601 376.28 70.7554 376.28 108.156L376.261 130.228C432.098 136.804 476.282 180.259 476.931 237.881C476.969 241.294 476.606 244.704 476.587 248.119L476.571 475.847C476.608 514.359 479.447 532.29 435.918 532.222L346.094 532.194L208.863 532.222C202.064 532.225 194.919 532.607 188.182 531.63C166.026 528.417 164.646 506.666 164.654 489.557L164.661 250.264C164.644 240.807 164.335 231.658 165.891 222.264C174.246 171.837 215.005 136.041 265.441 130.393ZM340.808 91.7317C324.934 92.2285 302.304 90.1993 287.458 92.0833C286.581 104.336 287.093 117.031 287.209 129.329C291.795 129.303 296.38 129.246 300.964 129.404C318.366 128.995 337.285 128.874 354.662 129.434C354.68 116.925 355.064 104.298 354.006 91.8257C349.64 91.4126 345.187 91.5869 340.808 91.7317ZM247.384 351.698C219.309 353.047 216.324 369.157 216.324 393.075L216.323 466.545C216.32 475.732 215.075 487.36 217.13 496.289C224.559 497.116 232.142 496.818 239.609 496.815L350.472 496.803C365.188 496.804 379.929 496.628 394.641 496.887C398.609 496.837 422.505 497.722 424.291 496.018C425.656 488.922 424.97 480.978 424.968 473.756L424.975 399.034C424.983 381.247 426.986 357.1 403.374 352.399C395.16 350.764 385.593 351.595 377.21 351.596L276.281 351.604C266.87 351.603 256.719 351.061 247.384 351.698Z"/>
	<path fill="white" transform="scale(1.6 1.6)" d="M126.194 502.105C93.7671 499.941 96.723 469.71 96.7276 447.063L96.7238 368.592C96.7118 363.529 96.1797 358.018 96.9064 353.013C99.0672 338.128 112.052 327.499 126.74 326.38C136.189 326.001 146.063 325.932 155.489 326.549L155.534 480.255C155.534 487.559 155.329 494.924 155.815 502.214C145.942 502.216 136.066 502.268 126.194 502.105Z"/>
	<path fill="white" transform="scale(1.6 1.6)" d="M485.909 502.172C485.368 492.786 485.665 483.263 485.667 473.86L485.671 358.45C485.67 347.725 485.373 336.926 485.63 326.211C514.92 326.689 544.913 321.951 545.088 361.635L545.095 460.089C545.083 472.821 545.41 483.41 535.8 493.124C525.836 502.249 517.377 502.243 504.728 502.222L485.909 502.172Z"/>
	<path fill="white" transform="scale(1.6 1.6)" d="M225.623 409.635L225.517 407.76C224.418 387.347 221.109 361.696 247.906 360.447L253.437 360.359L378.877 360.342C392.065 360.335 410.873 357.935 415.071 374.54C416.904 381.788 416.011 401.623 416.005 409.87C408.802 409.457 401.55 409.627 394.337 409.634L225.623 409.635Z"/>
	<path fill="white" transform="scale(1.6 1.6)" d="M225.775 487.799C224.855 464.89 225.042 441.677 225.423 418.747C238.024 419.021 250.656 418.851 263.261 418.851L328.389 418.848C342.711 418.847 357.277 418.288 371.567 419.087C371.559 423.445 371.578 427.804 371.84 432.155C372.25 438.964 372.884 439.281 379.682 437.661C380.728 431.553 380.355 424.886 380.415 418.69C392.261 419.184 404.147 418.458 415.988 419.065L415.996 467.969L415.954 487.797L225.775 487.799Z"/>
</svg>
