<?xml version="1.0" encoding="utf-8" ?>
<svg xmlns="http://www.w3.org/2000/svg" xmlns:xlink="http://www.w3.org/1999/xlink" width="1024" height="1024">
	<path fill="white" transform="scale(1.6 1.6)" d="M138.974 141.173C137.928 117.419 133.921 87.7066 165.164 85.4411C168.525 85.1073 172.113 85.3248 175.498 85.325L463.691 85.2983C497.298 85.1525 519.685 109.438 519.785 142.495L519.803 490.625C519.819 518.658 510.346 545.511 478.883 551.932C468.635 554.024 457.35 553.402 446.923 553.401L273.281 553.388L174.956 553.415C159.658 553.442 144.646 552.995 139.664 534.328C137.429 525.953 138.75 502.469 138.523 492.258L163.232 492.285C171.577 492.289 180.826 493.078 188.905 490.801C218.746 482.39 219.457 437.265 188.214 429.158C179.991 427.024 170.865 427.785 162.413 427.794L139.039 427.795C137.905 401.284 138.266 371.849 138.719 345.215C151.384 344.988 178.569 346.695 189.388 343.67C219.641 335.211 219.599 291.11 189.561 282.258C180.819 279.681 170.227 280.275 161.157 280.268L138.942 280.273C138.519 270.584 138.694 260.855 138.697 251.157L138.715 206.22C151.444 206.071 179.311 207.699 190.118 204.518C220.041 195.71 219.297 150.707 189.311 142.48C181.422 140.315 172.338 141.081 164.207 141.095L138.974 141.173Z"/>
	<path fill="white" transform="scale(1.6 1.6)" d="M179.61 191.63C167.367 192.431 133.515 193.623 121.445 191.832C100.646 188.745 101.193 157.515 123.73 155.118L123.987 155.101C135.51 154.433 173.343 153.837 183.306 155.762C203.829 159.726 202.787 190.785 179.61 191.63Z"/>
	<path fill="white" transform="scale(1.6 1.6)" d="M180.321 331.023C169.344 331.796 132.805 332.556 122.259 330.847C100.067 327.252 101.764 296.663 124.07 294.499C135.661 293.531 173.65 293.411 183.22 295.308C202.872 299.206 202.363 329.157 180.321 331.023Z"/>
	<path fill="white" transform="scale(1.6 1.6)" d="M177.625 478.032C167.088 478.816 131.184 479.564 121.267 477.726C101.232 474.013 100.073 443.114 126.501 441.696C138.664 441.123 174.024 440.561 183.705 442.575C203.086 446.608 201.65 476.804 177.625 478.032Z"/>
</svg>
