<?xml version="1.0" encoding="utf-8" ?>
<svg xmlns="http://www.w3.org/2000/svg" xmlns:xlink="http://www.w3.org/1999/xlink" width="1024" height="1024">
	<path fill="white" transform="scale(1.6 1.6)" d="M325.707 145.025C294.671 145.324 264.748 151.102 237.735 166.821C235.214 168.288 223.516 178.529 220.408 174.554C220.499 169.714 223.512 162.649 225.265 158.071C239.803 120.109 271.004 62.1463 316.412 57.2999C362.457 52.6999 398.216 113.137 412.831 148.667C414.319 152.283 422.604 172.116 420.712 175.107C417.019 176.788 410.84 171.46 407.886 169.457C385.339 154.172 352.71 146.139 325.707 145.025Z"/>
	<path fill="white" transform="scale(1.6 1.6)" d="M425.719 208.645C436.238 200.814 486.784 166.954 496.528 165.075C503.529 164.902 507.992 171.743 504.597 177.822C502.107 182.281 498.031 186.34 494.696 190.181C469.876 218.771 451.834 233.038 433.445 267.66C441.685 317.056 457.698 349.716 448.276 403.511C488.756 419.769 507.015 418.698 506.975 469.761L506.988 516.409C507.018 531.507 508.698 537.855 490.13 538.156C465.667 538.551 441.138 538.181 416.668 538.18L161.825 538.189C154.123 538.188 137.401 540.647 135.348 530.213C132.686 516.689 134.968 480.458 134.729 465.078C134.007 420.367 157.16 418.003 193.401 403.451C188.313 384.58 192.385 340.254 196.292 322.144C200.203 304.017 205.549 286.357 208.416 267.991C198.732 248.279 185.573 231.163 170.66 215.208C165.316 209.49 118.754 169.901 143.495 165.29C151.588 163.782 207.553 202.845 215.427 208.462C245.522 183.586 270.32 167.434 311.874 166.017C358.046 164.442 391.931 177.16 425.719 208.645ZM314.891 213.01C297.917 231.905 277.768 249.909 253.055 257.721C253.066 284.87 261.708 309.412 281.124 328.842C293.117 340.843 309.654 350.691 327.197 347.747C364.666 342.316 387.396 297.319 388.772 262.611C365.374 256.121 345.209 242.832 327.61 226.411C324.089 223.127 318.102 215.029 314.891 213.01ZM359.754 356.323C333.055 370.831 308.975 370.7 282.817 356.768C269.215 374.49 256.406 392.826 242.61 410.396C240.517 413.061 237.973 415.797 236.435 418.812C236.982 421.063 237.487 423.831 239.477 425.282C243.603 428.289 288.165 424.04 293.329 427.573C296.778 429.933 301.998 444.157 304.212 448.667C308.273 457.298 313.188 470.515 317.686 478.286C322.414 486.454 329.572 466.951 330.645 464.568L341.178 441.059C343.221 436.596 345.461 429.568 349.614 426.695C362.489 424.296 386.764 426.918 401.601 425.871C404.259 424.033 404.991 422.249 405.623 419.2C400.539 406.953 375.042 377.75 365.725 364.618C363.932 362.091 361.959 358.4 359.754 356.323Z"/>
</svg>
