<?xml version="1.0" encoding="utf-8" ?>
<svg xmlns="http://www.w3.org/2000/svg" xmlns:xlink="http://www.w3.org/1999/xlink" width="1024" height="1024">
	<path fill="white" transform="scale(1.6 1.6)" d="M260.82 367.388C250.501 367.686 240.152 367.534 229.828 367.534L150.82 367.546C144.245 367.547 137.266 367.946 130.791 366.74C88.1253 358.797 94.1186 314.692 94.1269 282.851L94.1289 160.828C94.1302 151.154 93.4045 140.636 94.9177 131.084C98.0217 111.49 115.785 96.0752 135.321 94.504C137.879 94.2425 140.578 94.4311 143.153 94.441L284.401 94.4794C315.537 94.4768 356.951 88.2877 365.11 130.146C366.56 137.581 366.109 145.498 366.106 153.046L366.1 230.877C366.099 240.905 366.324 250.982 365.914 261.001L333.646 260.963C301.017 260.951 273.082 266.339 262.284 303.755C259.431 313.829 259.767 354.439 260.82 367.388ZM267.702 205.718C238.575 210.304 242.528 251.042 273.098 249.988C302.093 244.754 295.417 202.857 267.702 205.718ZM184.441 206.022C155.763 211.263 161.843 253.645 191.996 249.446C220.613 241.769 212.642 202.429 184.441 206.022Z"/>
	<path fill="white" transform="scale(1.6 1.6)" d="M478.82 543.255C461.681 542.786 444.457 543.115 427.309 543.115L324.057 543.133C300.289 543.058 280.149 532.807 275.37 507.016C273.827 498.693 274.363 489.616 274.36 481.179L274.356 445.773C274.36 405.791 273.922 365.758 274.372 325.783C274.879 280.713 300.51 274.042 339.874 274.844C353.129 274.45 366.462 274.73 379.727 274.729L488.289 274.72C495.034 274.718 502.41 274.161 509.057 275.279C551.048 282.34 544.72 328.619 544.719 359.388L544.726 478.993C544.726 498.122 546.619 513.548 532.403 528.571C515.85 546.063 500.447 542.671 478.82 543.255ZM405.66 387.891C377.149 393.481 382.201 434.347 411.641 431.245C439.908 426.161 433.347 384.591 405.66 387.891Z"/>
</svg>
